<?xml version="1.0" encoding="UTF-8" standalone="no"?>
<!-- Created with Inkscape (http://www.inkscape.org/) -->

<svg
   width="2400"
   height="776"
   viewBox="0 0 634.99999 205.31669"
   version="1.1"
   id="svg1"
   xml:space="preserve"
   sodipodi:docname="frontpage_logo_mdanse.svg"
   inkscape:version="1.4.3 (0d15f75, 2025-12-25)"
   inkscape:export-filename="frontpage_simple.png"
   inkscape:export-xdpi="96"
   inkscape:export-ydpi="96"
   xmlns:inkscape="http://www.inkscape.org/namespaces/inkscape"
   xmlns:sodipodi="http://sodipodi.sourceforge.net/DTD/sodipodi-0.dtd"
   xmlns:xlink="http://www.w3.org/1999/xlink"
   xmlns="http://www.w3.org/2000/svg"
   xmlns:svg="http://www.w3.org/2000/svg"><sodipodi:namedview
     id="namedview1586"
     pagecolor="#ffffff"
     bordercolor="#000000"
     borderopacity="0.25"
     inkscape:showpageshadow="2"
     inkscape:pageopacity="0.0"
     inkscape:pagecheckerboard="0"
     inkscape:deskcolor="#d1d1d1"
     inkscape:document-units="mm"
     showgrid="false"
     inkscape:zoom="0.30464867"
     inkscape:cx="1642.876"
     inkscape:cy="436.56846"
     inkscape:window-width="1920"
     inkscape:window-height="1027"
     inkscape:window-x="1512"
     inkscape:window-y="25"
     inkscape:window-maximized="1"
     inkscape:current-layer="svg1" /><defs
     id="defs1"><linearGradient
       id="linearGradient1"
       inkscape:collect="always"><stop
         style="stop-color:#ffffff;stop-opacity:0.0046729;"
         offset="0"
         id="stop1" /><stop
         style="stop-color:#ffffff;stop-opacity:0.99000001;"
         offset="0.34601891"
         id="stop5" /><stop
         style="stop-color:#ffffff;stop-opacity:1;"
         offset="0.48746517"
         id="stop3" /><stop
         style="stop-color:#ffffff;stop-opacity:0.99000001;"
         offset="0.61057174"
         id="stop4" /><stop
         style="stop-color:#ffffff;stop-opacity:0.01869159;"
         offset="1"
         id="stop2" /></linearGradient><rect
       x="17.966635"
       y="441.35431"
       width="510.09622"
       height="127.32876"
       id="rect5445" /><linearGradient
       inkscape:collect="always"
       xlink:href="#linearGradient1"
       id="linearGradient2"
       x1="315.22818"
       y1="204.09439"
       x2="315.29324"
       y2="1.1702418e-06"
       gradientUnits="userSpaceOnUse" /></defs><rect
     style="fill:url(#linearGradient2);stroke:#464646;stroke-width:0.0649999;stroke-linecap:round;paint-order:stroke fill markers"
     id="rect1"
     width="633.99536"
     height="204.96288"
     x="0.8684867"
     y="0" /><g
     id="layer1"
     transform="translate(-15.565131,-30.197343)"
     inkscape:export-filename="../combined_horizontal1_bottom.png"
     inkscape:export-xdpi="96"
     inkscape:export-ydpi="96"><path
       style="fill:#000000;stroke-width:1.02825"
       d="m 106.10686,236.60154 c -2.05971,-0.32816 -4.63997,-1.39662 -6.579288,-2.72447 -1.480669,-1.0138 -4.38904,-3.93434 -5.887072,-5.91173 -6.04662,-7.98144 -11.12411,-21.3868 -14.630385,-38.62652 l -0.666503,-3.27704 -2.358577,0.79848 c -19.80001,6.70332 -36.1919,8.80849 -46.301288,5.9464 -2.395656,-0.67824 -5.558054,-2.27222 -7.102561,-3.57995 -4.965576,-4.20439 -6.254582,-10.69191 -3.684933,-18.54614 1.372068,-4.19378 5.057593,-10.53179 9.201055,-15.8231 4.143913,-5.29188 11.577182,-13.01522 17.598428,-18.28518 1.395616,-1.2215 2.554064,-2.27254 2.574333,-2.33571 0.02026,-0.0632 -0.391094,-0.46849 -0.91415,-0.90076 -0.523067,-0.43225 -2.486258,-2.20118 -4.362668,-3.93092 l -3.411651,-3.14501 -0.99007,0.42584 c -2.401722,1.03298 -5.666918,1.31696 -8.425234,0.73275 -4.756529,-1.00743 -9.087034,-5.19847 -10.387344,-10.05288 -0.435282,-1.62499 -0.48983,-5.13013 -0.104313,-6.70243 0.34124,-1.39171 1.226356,-3.38412 2.036565,-4.5844 l 0.616707,-0.91358 -1.305434,-2.60459 c -2.405071,-4.798644 -3.362738,-8.301341 -3.362738,-12.299417 0,-8.429936 5.57458,-13.824008 15.985361,-15.467755 2.970041,-0.468935 10.056796,-0.464627 13.978675,0.0086 8.195198,0.988649 16.767158,2.996746 26.76407,6.269842 l 3.959187,1.296277 0.664788,-3.26867 c 4.138868,-20.350221 10.304041,-34.950428 17.811061,-42.179703 2.669811,-2.571035 4.586239,-3.752697 7.587309,-4.6782 2.14532,-0.661603 5.5482,-0.662973 7.71237,-0.0031 7.67347,2.339661 13.98255,10.517599 19.4633,25.228629 2.02131,5.42542 4.40909,14.137156 5.93104,21.639153 l 0.6645,3.275485 3.57778,-1.182872 c 1.96778,-0.65058 4.37766,-1.421753 5.3553,-1.713716 1.68092,-0.501991 1.77752,-0.561524 1.77752,-1.095376 0,-0.310493 0.17994,-1.267987 0.39989,-2.127763 2.19695,-8.588269 11.58259,-12.922679 19.61,-9.056162 2.71023,1.305424 4.78323,3.30385 6.20694,5.983676 l 0.70002,1.317637 2.17342,0.0017 c 1.19537,9.44e-4 3.20652,0.138172 4.46922,0.304956 8.84615,1.168451 14.37135,5.17993 16.02199,11.63249 0.49553,1.937093 0.53014,5.685527 0.0733,7.926304 -1.33912,6.566915 -5.83182,14.362115 -13.31043,23.094595 -2.63687,3.07899 -10.37243,10.83045 -14.09977,14.12878 -1.56423,1.38418 -2.84404,2.56649 -2.84404,2.62736 0,0.0609 1.27981,1.24318 2.84404,2.62735 3.72734,3.29832 11.4629,11.04981 14.09977,14.12878 7.50358,8.76166 11.96985,16.52272 13.32171,23.14921 0.46824,2.29521 0.43339,5.87744 -0.0765,7.85339 -1.63769,6.34754 -6.92375,10.30194 -15.60098,11.67081 -2.95093,0.46553 -10.0783,0.46893 -13.87711,0.006 -8.26283,-1.00555 -16.99028,-3.046 -26.84362,-6.27591 l -3.98971,-1.30782 -0.44312,2.25453 c -0.24372,1.24 -0.77587,3.70971 -1.18256,5.48824 l -0.73946,3.23368 0.60148,0.41782 c 0.33082,0.22978 1.34048,1.15095 2.24367,2.04702 2.69813,2.67681 3.94434,5.69746 3.94434,9.56049 0,5.49531 -2.6897,9.95615 -7.51641,12.46587 -2.20693,1.14754 -3.7277,1.49918 -6.57499,1.52029 l -2.41051,0.0179 -1.17824,1.87193 c -3.87794,6.16108 -8.50013,10.13667 -13.17019,11.32782 -1.555,0.39661 -4.21088,0.5475 -5.63728,0.32024 z m 5.20314,-8.27299 c 1.20013,-0.57873 1.91215,-1.12745 3.35388,-2.58463 1.59048,-1.60756 4.11738,-4.92724 4.49047,-5.8993 0.0804,-0.20944 -0.17031,-0.6432 -0.71005,-1.22864 -2.33758,-2.53547 -3.4365,-5.19445 -3.6192,-8.75721 -0.21731,-4.23706 1.08601,-7.70796 3.98127,-10.60263 2.07925,-2.07883 4.5462,-3.31727 7.73598,-3.8836 l 1.92627,-0.34198 0.564,-2.32442 c 0.9508,-3.91869 1.98555,-9.20793 1.82751,-9.34171 -0.0823,-0.0697 -1.70375,-0.74925 -3.60316,-1.51011 -4.19459,-1.68026 -9.64441,-4.0911 -14.86749,-6.57687 -2.14366,-1.02023 -3.98174,-1.85497 -4.08464,-1.85497 -0.10287,0 -2.23271,0.96772 -4.73295,2.15046 -4.855549,2.29693 -10.465741,4.76832 -15.166559,6.68111 -1.592155,0.64787 -2.894822,1.25308 -2.894822,1.34494 0,0.4828 1.783902,8.69521 2.576309,11.86036 4.300869,17.17897 10.479213,29.3934 16.534572,32.68851 2.38727,1.29904 4.26426,1.34975 6.68861,0.18069 z m 20.06981,-13.44787 c 1.32484,-0.68125 2.40654,-1.76501 3.02687,-3.03264 1.14179,-2.33328 0.61351,-5.34728 -1.26112,-7.19486 -1.14378,-1.12728 -2.38566,-1.65693 -4.09571,-1.74679 -1.9152,-0.10071 -3.20338,0.3308 -4.51908,1.51349 -1.48532,1.33517 -2.1481,2.81349 -2.1286,4.74784 0.0288,2.85631 1.56427,4.99781 4.323,6.0292 1.09703,0.41014 3.56856,0.24224 4.65464,-0.31624 z m -84.572012,-28.7773 c 5.232491,-0.59129 10.37863,-1.62247 16.692594,-3.34481 3.715752,-1.0136 12.725963,-3.89401 13.255197,-4.23747 0.241911,-0.157 0.203108,-0.79554 -0.256153,-4.21587 -0.776691,-5.78436 -1.117047,-8.94867 -1.620538,-15.0662 l -0.444709,-5.40334 -2.333756,-1.61017 c -4.841776,-3.34059 -10.782218,-7.6356 -14.177831,-10.25072 -1.934198,-1.48963 -3.625751,-2.66387 -3.759008,-2.60945 -1.098274,0.44852 -12.045871,10.89459 -15.653689,14.93656 -6.433803,7.208 -10.742424,13.77794 -12.539452,19.12057 -0.816018,2.42604 -1.02366,5.20042 -0.519107,6.93567 1.033778,3.55537 5.032871,5.55011 12.319847,6.14514 1.526173,0.12463 6.241664,-0.084 9.036605,-0.39991 z m 136.111162,-0.0541 c 4.5226,-0.9833 7.12172,-2.75532 8.15348,-5.55888 0.48238,-1.31074 0.43283,-3.97993 -0.11047,-5.9507 -1.38417,-5.0209 -4.69551,-10.53274 -10.55466,-17.56853 -3.2975,-3.95972 -13.14087,-13.63063 -17.91127,-17.59748 -0.26285,-0.21857 -0.53246,-0.0819 -1.72675,0.87485 -2.65196,2.12464 -9.12642,6.91555 -12.68986,9.39013 -1.95529,1.3578 -4.10964,2.86322 -4.78743,3.34538 l -1.23237,0.87662 -0.25156,3.43397 c -0.38268,5.22433 -0.97954,11.04932 -1.67059,16.30397 -0.34327,2.61023 -0.54793,4.82022 -0.45481,4.91113 0.23173,0.22617 7.44832,2.61428 10.94127,3.62068 7.95317,2.29148 15.5708,3.80211 22.03614,4.36991 2.35868,0.20713 8.46673,-0.0614 10.25888,-0.45105 z m -94.806447,-11.8942 c 3.546551,-1.47712 9.341673,-4.05176 10.87803,-4.83289 l 0.783411,-0.39829 -4.236899,-2.34802 c -2.330283,-1.29141 -6.156616,-3.50095 -8.502959,-4.91013 -2.346332,-1.40917 -4.362356,-2.58822 -4.480047,-2.62011 -0.126427,-0.0341 -0.189731,0.21506 -0.154708,0.60933 0.49319,5.55234 1.585717,15.15821 1.791102,15.74778 0.04865,0.13964 0.139825,0.25387 0.202637,0.25387 0.06279,0 1.736565,-0.67567 3.719433,-1.50154 z m 44.220147,1.04458 c 0.37621,-1.6162 1.88574,-15.90616 1.6999,-16.09196 -0.0541,-0.0543 -2.05798,1.07604 -4.45282,2.51166 -2.39483,1.43562 -6.25856,3.66795 -8.58604,4.96073 l -4.23179,2.35052 1.03532,0.52454 c 2.53747,1.28556 13.80159,6.17154 14.28058,6.19441 0.0816,0.004 0.19635,-0.19856 0.25485,-0.4499 z M 111.97794,162.8293 c 5.32016,-2.82958 9.98068,-5.46802 14.46643,-8.18983 7.16843,-4.34955 8.18741,-5.03439 8.31709,-5.58952 0.21081,-0.90249 0.37779,-19.85085 0.22057,-25.02844 l -0.15252,-5.02261 -4.19258,-2.61126 c -5.31448,-3.30999 -7.84882,-4.8199 -11.91211,-7.09699 -4.48914,-2.51571 -10.20171,-5.53305 -10.4755,-5.53305 -0.24771,0 -5.5823,2.81209 -9.940614,5.24013 -3.694045,2.05796 -7.39402,4.25674 -12.410392,7.37516 l -4.182978,2.6003 -0.133255,3.51219 c -0.171797,4.528 -0.171989,18.94261 -3.21e-4,23.46728 l 0.132925,3.50363 2.456562,1.56037 c 5.550753,3.52581 12.260812,7.45801 17.794023,10.42764 1.73182,0.92946 3.78868,2.03853 4.57079,2.46462 0.78212,0.42609 1.53977,0.77591 1.68367,0.7774 0.14391,9.6e-4 1.83511,-0.83418 3.75821,-1.85702 z m -38.093996,-33.60169 -0.05435,-4.99568 -4.102914,2.94983 c -4.850402,3.48721 -9.20315,6.82471 -9.20315,7.05661 0,0.22264 5.010947,4.04839 9.583432,7.31674 l 3.722632,2.66086 0.05435,-4.99634 c 0.0299,-2.74799 0.0299,-7.24438 0,-9.99202 z m 72.905686,12.06874 c 4.75778,-3.41825 9.21248,-6.83842 9.21248,-7.07307 0,-0.30779 -11.51209,-8.92617 -13.05213,-9.77132 -0.3364,-0.1846 -0.3555,0.34058 -0.3555,9.77132 0,9.43076 0.019,9.95596 0.3555,9.77133 0.19553,-0.1073 1.92336,-1.32151 3.83965,-2.69826 z m -85.961365,-17.0075 c 3.724557,-2.80103 7.672333,-5.62029 12.287822,-8.77523 l 1.317952,-0.90089 0.444779,-5.40423 c 0.503369,-6.11597 0.843907,-9.282579 1.619405,-15.058291 0.318162,-2.36957 0.465138,-4.095233 0.357737,-4.200245 -0.10029,-0.09804 -1.964916,-0.771005 -4.143653,-1.495491 -20.268789,-6.739857 -35.939309,-8.403478 -43.450172,-4.612781 -1.485487,0.749717 -2.844146,2.061569 -3.486188,3.366083 -0.444488,0.903119 -0.496849,1.264248 -0.485416,3.348013 0.01494,2.72223 0.449232,4.321881 2.156743,7.943797 l 1.016095,2.155325 1.440626,-0.37814 c 1.769991,-0.464608 4.992213,-0.499165 6.800345,-0.073 2.898512,0.68327 6.150942,2.85787 7.863847,5.2578 3.062429,4.29073 3.590819,9.57382 1.413458,14.13231 l -0.730378,1.52911 1.490972,1.39158 c 0.820038,0.76535 2.855187,2.611 4.522551,4.10142 l 3.031579,2.70985 1.132915,-0.91439 c 0.623106,-0.50292 3.052649,-2.35812 5.398981,-4.12266 z m 104.518575,2.31797 c 3.2536,-2.82808 12.18773,-11.74758 14.55614,-14.53229 5.63059,-6.62026 9.55438,-12.986715 10.9467,-17.761308 0.66743,-2.288827 0.75079,-4.764052 0.21406,-6.356459 -0.50258,-1.491084 -2.15649,-3.240595 -3.8528,-4.075518 -2.23782,-1.10145 -5.91018,-1.85585 -9.03418,-1.85585 h -1.56401 l -0.5458,1.777165 c -0.3002,0.97744 -0.89244,2.369843 -1.3161,3.09423 -0.94237,1.611262 -3.23022,3.932258 -4.77207,4.841224 -3.34047,1.969295 -7.844,2.493209 -11.43733,1.330554 -2.78615,-0.901476 -5.62206,-3.015894 -7.24014,-5.398118 -0.7741,-1.139688 -0.84975,-1.194766 -1.4605,-1.063288 -1.05756,0.227672 -9.97395,3.161082 -10.16827,3.345273 -0.1033,0.09793 0.0478,1.878143 0.35621,4.194939 0.76198,5.725207 1.26267,10.432656 1.67946,15.790036 l 0.36226,4.65654 1.22695,0.87268 c 0.6748,0.48 2.82672,1.98365 4.78201,3.34144 3.56344,2.47459 10.0379,7.2655 12.68986,9.39012 1.19429,0.95683 1.4639,1.09344 1.72675,0.87486 0.1713,-0.14245 1.45416,-1.25226 2.8508,-2.46623 z M 36.085616,119.48327 c 1.350815,-0.65603 2.775145,-2.23291 3.216284,-3.56078 0.465069,-1.39991 0.342563,-3.62101 -0.268789,-4.8734 -0.619698,-1.26949 -1.74909,-2.36666 -3.090229,-3.00205 -1.474685,-0.69864 -3.693156,-0.73939 -5.103516,-0.0937 -1.285176,0.58839 -2.541006,1.77056 -3.188593,3.00158 -0.469501,0.8925 -0.541057,1.27003 -0.54142,2.85637 -4.4e-4,1.97058 0.277273,2.77037 1.442932,4.15538 1.760425,2.09172 5.004369,2.74479 7.533331,1.51661 z m 50.302999,-12.33653 c 3.244928,-1.94921 8.365203,-4.87543 11.898928,-6.80023 l 1.502427,-0.818372 -1.197713,-0.602979 c -1.726748,-0.869344 -9.565945,-4.328564 -12.045453,-5.315338 -1.161858,-0.462387 -2.181314,-0.767469 -2.265457,-0.677966 -0.187293,0.199223 -1.101906,7.521595 -1.587763,12.711575 -0.299399,3.19809 -0.311664,3.79785 -0.07583,3.70737 0.154739,-0.0593 1.851629,-1.05119 3.770872,-2.20406 z m 47.669715,1.43462 c -0.009,-2.04124 -1.55677,-15.366849 -1.81713,-15.649505 -0.0824,-0.0895 -1.1005,0.215578 -2.26234,0.677966 -2.47485,0.984915 -10.31741,4.445348 -12.0387,5.311925 l -1.19094,0.599578 4.23815,2.347496 c 2.33096,1.29112 6.15785,3.51278 8.50418,4.93705 2.34635,1.42426 4.33465,2.60059 4.41843,2.6141 0.0839,0.0135 0.15056,-0.36386 0.14835,-0.83861 z M 112.51052,93.113862 c 4.78941,-2.29889 8.22837,-3.831071 14.03485,-6.253041 2.4019,-1.001865 4.39614,-1.850628 4.43166,-1.886143 0.12019,-0.120168 -1.5904,-8.212149 -2.51448,-11.894711 C 123.49169,53.270126 116.4534,40.841545 109.3739,39.372146 102.81925,38.011679 95.403127,48.22943 89.987839,66.081685 c -1.879288,6.195354 -4.730784,18.643299 -4.346781,18.97546 0.09577,0.08286 1.499699,0.680547 3.119785,1.328194 4.213254,1.684291 10.640347,4.525096 15.235897,6.73436 2.17874,1.047396 4.09021,1.904361 4.24772,1.904373 0.1575,9e-6 2.07723,-0.859586 4.26606,-1.91021 z m 52.1392,-7.327848 c 2.49638,-0.751224 4.36406,-3.212657 4.40215,-5.801615 0.0293,-1.989654 -0.49808,-3.315589 -1.86047,-4.677704 -0.83224,-0.832058 -1.43695,-1.236924 -2.25288,-1.508359 -4.07064,-1.354175 -8.14331,1.263387 -8.47564,5.447419 -0.12349,1.554627 0.16264,2.658157 1.0148,3.914043 1.64784,2.428493 4.43618,3.449512 7.17204,2.626216 z"
       id="path35" /><path
       style="fill:#000000;fill-opacity:1;stroke-width:0.738709"
       d="M 104.50908,189.58102 C 77.507839,186.90515 57.5866,168.45314 53.254893,142.10695 l -0.432872,-2.63279 0.0054,-5.77605 0.0054,-5.77604 0.514205,-2.83909 C 57.376344,102.83617 73.088298,86.112025 95.47052,80.245914 l 0.911657,-0.23894 0.06381,-2.506709 0.06381,-2.506716 0.590196,-0.731083 c 0.324607,-0.402103 0.89391,-0.894559 1.265123,-1.094351 l 0.674925,-0.363257 h 3.368629 3.36857 V 65.96467 c 0,-4.369877 0.0751,-7.039257 0.2081,-7.391389 0.73679,-1.95152 3.25367,-2.349898 4.37584,-0.692605 l 0.48873,0.721811 v 7.101182 7.101189 h 3.44593 3.44594 l 0.8276,0.486729 c 0.55182,0.324539 0.96385,0.769221 1.23652,1.334503 l 0.40895,0.84778 v 2.266666 2.266675 l 1.41449,0.3469 c 38.93517,9.548845 55.01056,56.068169 30.40973,88.000279 -10.73977,13.94032 -30.77341,22.88722 -47.53003,21.22663 z"
       id="path1" /><g
       id="g141"
       transform="matrix(0.99667528,0,0,1.0166879,0.39249946,-2.5773074)"><path
         style="fill:#cccccc;fill-opacity:1;stroke-width:0.73597"
         d="m 148.49592,103.38841 c -2.72298,-4.384184 -7.45443,-9.014617 -11.83147,-11.578863 -2.74368,-1.607354 -2.85641,-1.579201 -0.93837,0.23439 2.56199,2.422463 4.14842,4.4983 6.48786,8.489263 l 1.18432,2.02043 2.16556,0.44059 c 1.19106,0.24232 2.25546,0.4774 2.36533,0.52238 0.42366,0.17347 0.71342,0.10793 0.56677,-0.12819 z"
         id="path31-3" /><path
         style="fill:#b3b3b3;fill-opacity:1;stroke-width:0.73597"
         d="M 113.60644,98.428981 C 112.831,94.39601 110.38856,88.613865 108.67106,86.745116 l -0.48817,-0.531163 -0.59579,0.672976 c -1.57288,1.776673 -4.72368,9.723461 -4.72368,11.913844 v 0.31558 l 5.4357,-0.0098 5.43569,-0.0098 z"
         id="path34" /><path
         style="fill:#b3b3b3;fill-opacity:1;stroke-width:0.73597"
         d="m 129.28863,100.22741 c 0,-0.675967 -3.3224,-5.052468 -5.50851,-7.256194 -2.77148,-2.793825 -7.49654,-5.891669 -10.01501,-6.56604 l -0.43749,-0.117148 1.07038,2.17417 c 1.15172,2.339412 2.35387,5.663885 3.12837,8.651325 0.60943,2.350713 0.54717,2.271551 1.78691,2.271551 1.93389,0 7.15546,0.4979 9.82745,0.937086 0.0814,0.0134 0.1479,-0.0293 0.1479,-0.0947 z"
         id="path33" /><path
         style="fill:#b3b3b3;fill-opacity:1;stroke-width:0.73597"
         d="m 90.922726,99.862582 c 1.404542,-0.15578 3.642803,-0.340012 4.973903,-0.409393 l 2.420189,-0.126152 0.182197,-0.595884 c 0.10021,-0.327746 0.291441,-1.028519 0.42496,-1.55729 0.950644,-3.76481 2.253485,-7.33179 3.467245,-9.49277 0.88103,-1.568605 0.87386,-1.571069 -1.51086,-0.519491 -5.188244,2.287822 -9.546924,6.163515 -12.906216,11.476087 -1.058576,1.674091 -1.071277,1.757571 -0.246047,1.617171 0.3525,-0.06 1.790083,-0.2365 3.194629,-0.392278 z"
         id="path32" /><path
         style="fill:#cccccc;fill-opacity:1;stroke-width:0.73597"
         d="m 139.02278,101.83663 c -2.72298,-4.384178 -7.45443,-9.01461 -11.83146,-11.578856 -2.74368,-1.607354 -2.85642,-1.579201 -0.93837,0.23439 2.56198,2.422462 4.14842,4.498299 6.48785,8.489265 l 1.18433,2.020421 2.16556,0.44059 c 1.19106,0.24233 2.25545,0.4774 2.36532,0.52239 0.42367,0.17347 0.71342,0.10792 0.56677,-0.1282 z"
         id="path31" /><path
         style="fill:#cccccc;fill-opacity:1;stroke-width:0.73597"
         d="m 79.960719,101.48711 c 1.262248,-0.2162 2.364227,-0.4964 2.448844,-0.62266 0.08462,-0.12626 0.603173,-1.008292 1.152348,-1.960075 2.152483,-3.730494 4.732502,-6.997795 7.088837,-8.97721 2.441874,-2.051273 -1.976705,0.309701 -5.042583,2.694403 -2.898804,2.254741 -6.286135,5.913144 -8.301163,8.965462 l -0.374698,0.56759 0.366709,-0.13721 c 0.201691,-0.0755 1.399458,-0.3141 2.661706,-0.5303 z"
         id="path30" /><path
         style="fill:#cccccc;fill-opacity:1;stroke-width:0.537715"
         d="m 70.478311,102.6767 c 0.892008,-0.16331 1.670759,-0.37497 1.730557,-0.47033 0.05979,-0.0954 0.426252,-0.76164 0.814345,-1.48059 1.52112,-2.817905 3.344376,-5.28593 5.009557,-6.781114 1.725631,-1.549477 -1.396903,0.233941 -3.563506,2.035268 -2.048535,1.703167 -4.442303,4.466616 -5.866288,6.772246 l -0.264793,0.42874 0.259148,-0.1036 c 0.14253,-0.057 0.988971,-0.23727 1.88098,-0.40058 z"
         id="path30-4" /><path
         style="fill:#cccccc;fill-opacity:1;stroke-width:0.73597"
         d="m 135.51431,120.29545 c -0.67872,-5.05189 -3.9556,-16.10337 -4.77481,-16.10337 -0.0491,0 -1.26089,-0.13187 -2.69282,-0.29303 -3.50137,-0.39408 -9.02625,-0.80437 -9.10129,-0.67587 -0.0333,0.057 0.23548,1.61783 0.59729,3.46852 0.67585,3.45709 1.34865,8.38259 1.56272,11.44061 0.24071,3.4384 -0.48885,3.14518 7.86353,3.16042 l 6.681,0.0122 z"
         id="path29" /><path
         style="fill:#cccccc;fill-opacity:1;stroke-width:0.73597"
         d="m 94.879903,120.90381 c 0.23563,-0.22998 0.405611,-1.27673 0.69138,-4.25747 0.40778,-4.25349 0.978907,-8.20426 1.587293,-10.98007 0.209201,-0.95451 0.380367,-1.89301 0.380367,-2.08554 v -0.35005 h -1.001185 c -1.274909,0 -7.351969,0.53403 -9.456608,0.83101 l -1.605333,0.22653 -0.588264,1.34595 c -1.836679,4.20233 -4.571471,14.78655 -4.038479,15.62976 0.04767,0.0754 3.153809,0.0939 6.902529,0.041 l 6.815856,-0.0961 z"
         id="path28" /><path
         style="fill:#cccccc;fill-opacity:1;stroke-width:0.73597"
         d="m 146.94245,121.44912 c -0.056,-0.23794 -0.27484,-1.1681 -0.48615,-2.067 -0.94933,-4.03868 -2.43979,-7.94512 -4.25499,-11.15219 -1.27539,-2.25334 -1.18762,-2.18986 -3.69553,-2.67278 -1.21905,-0.23474 -2.37174,-0.45676 -2.56155,-0.49338 -0.45995,-0.0887 -0.43305,0.18587 0.13458,1.3746 1.29106,2.70367 2.91123,8.51638 3.58682,12.86844 l 0.33156,2.1359 2.97755,0.18616 c 1.63764,0.10238 3.22327,0.20115 3.52361,0.21951 l 0.54606,0.0334 z"
         id="path27" /><path
         style="fill:#cccccc;fill-opacity:1;stroke-width:0.73597"
         d="m 74.26694,121.52799 2.068577,-0.12694 0.240014,-1.34595 c 1.040835,-5.8368 2.188332,-10.16285 3.490231,-13.15812 0.874719,-2.01246 0.749646,-2.04188 -3.969442,-0.93404 l -0.834914,0.19601 -1.065324,1.94882 c -2.235215,4.08892 -3.779066,8.353 -4.760325,13.14789 l -0.127642,0.62373 1.445123,-0.11224 c 0.794819,-0.0617 2.375984,-0.16935 3.513702,-0.23916 z"
         id="path26" /><path
         style="fill:#cccccc;fill-opacity:1;stroke-width:0.73597"
         d="m 155.92446,121.35355 c -1.21679,-3.80185 -2.62123,-6.98188 -4.63111,-10.48615 -1.61317,-2.81261 -5.95621,-4.39435 -4.54072,-1.65373 1.53385,2.96976 3.70258,9.34315 4.13416,12.14927 l 0.13465,0.8755 1.40948,0.23372 c 0.77521,0.12854 1.94192,0.33746 2.59269,0.46426 1.5518,0.30238 1.52136,0.35588 0.90085,-1.58287 z"
         id="path25" /><path
         style="fill:#b3b3b3;fill-opacity:1;stroke-width:0.73597"
         d="m 62.899718,122.64472 c 2.352852,-0.28876 2.129049,-0.0504 2.883532,-3.07032 0.913601,-3.65674 2.028954,-6.82713 3.365306,-9.56588 0.632118,-1.29548 1.056998,-2.35543 0.944179,-2.35543 -0.11282,0 -1.052952,0.32318 -2.089183,0.71816 l -1.884056,0.71815 -0.668812,1.01942 c -3.255316,4.96181 -6.489842,13.34716 -4.986294,12.92671 0.322242,-0.0901 1.41814,-0.26597 2.435328,-0.39081 z"
         id="path24" /><path
         style="fill:#b3b3b3;fill-opacity:1;stroke-width:0.73597"
         d="m 100.81963,122.67605 c 4.25711,-2.73866 9.96952,-2.87143 14.51688,-0.33742 0.84059,0.4684 1.5359,0.7519 1.54514,0.63 0.16977,-2.23812 -0.76291,-11.01957 -1.69814,-15.98853 -0.27866,-1.48055 -0.55863,-2.97436 -0.62214,-3.31958 -0.15663,-0.85127 -0.11091,-0.8459 -6.61384,-0.77758 -6.79958,0.0714 -5.88513,-0.87935 -7.15794,7.44233 -0.52243,3.4156 -1.417334,13.09469 -1.210712,13.09469 0.04643,0 0.604732,-0.33476 1.240752,-0.74391 z"
         id="path23" /><path
         style="fill:#4d4d4d;fill-opacity:1;stroke-width:0.73597"
         d="m 155.00892,141.21223 c 1.39273,-0.26084 2.58027,-0.52108 2.63899,-0.57834 0.59094,-0.57619 0.0338,-13.20659 -0.59935,-13.58815 -0.24275,-0.14629 -4.04828,-0.74159 -4.74063,-0.74159 h -0.47289 l 0.19972,1.20174 c 0.23437,1.41027 0.297,12.17096 0.0778,13.3634 -0.18062,0.98243 -0.38744,0.95794 2.89638,0.34294 z"
         id="path22" /><path
         style="fill:#4d4d4d;fill-opacity:1;stroke-width:0.73597"
         d="m 64.001235,137.97427 c -0.236496,-3.39887 -0.03976,-9.83061 0.344541,-11.26346 l 0.120824,-0.4505 -1.064194,0.12866 c -2.705771,0.32711 -4.074611,0.53761 -4.272838,0.65706 -0.58151,0.35042 -1.024835,10.14703 -0.576575,12.74117 l 0.153578,0.88877 1.12561,0.21944 c 1.689584,0.32938 4.271718,0.7306 4.348407,0.67568 0.03715,-0.0266 -0.04356,-1.64518 -0.179353,-3.59682 z"
         id="path21" /><path
         style="fill:#999999;fill-opacity:1;stroke-width:0.73597"
         d="m 75.774979,142.39574 c -0.481731,-1.87144 -0.578132,-9.42387 -0.19046,-14.92127 l 0.12764,-1.81 -3.414791,0.12571 c -4.180626,0.1539 -3.807742,-0.41339 -4.066266,6.1862 -0.404549,10.32731 -0.23927,10.58341 6.995985,10.84026 l 0.662287,0.0236 z"
         id="path20" /><path
         style="fill:#999999;fill-opacity:1;stroke-width:0.73597"
         d="m 145.03757,142.55645 c 3.30497,-0.34112 3.37386,-0.5571 3.09849,-9.71481 -0.23127,-7.69094 0.15955,-7.02803 -4.22219,-7.16178 -3.91045,-0.11937 -3.41911,-0.47253 -3.15916,2.27077 0.21296,2.2473 0.10387,12.44829 -0.15264,14.27403 l -0.11614,0.82661 0.95835,-0.11142 c 0.52709,-0.0613 2.14407,-0.23382 3.59329,-0.3834 z"
         id="path19" /><path
         style="fill:#800080;fill-opacity:1;stroke-width:0.73597"
         d="m 110.66082,142.9263 c 3.83338,-0.97329 6.47524,-4.36112 6.45414,-8.2766 -0.0417,-7.72935 -9.57586,-11.58287 -15.1683,-6.13069 -6.372582,6.21276 -0.0676,16.63693 8.71416,14.40729 z"
         id="path18" /><path
         style="fill:#999999;fill-opacity:1;stroke-width:0.73597"
         d="m 133.36144,143.29863 2.79098,-0.11203 0.16706,-2.62478 c 0.18938,-2.97545 0.17295,-12.90806 -0.0235,-14.18511 l -0.12945,-0.84168 h -7.17151 -7.17152 l -0.40872,0.50663 c -0.54384,0.67413 -0.51819,1.01236 0.19735,2.60195 0.97799,2.17263 1.18766,3.01879 1.30223,5.25556 l 0.10834,2.11507 -0.41224,1.67931 c -0.22674,0.92362 -0.68579,2.20765 -1.0201,2.85338 -0.79171,1.52921 -0.58107,2.55335 0.59827,2.90885 0.33977,0.10242 7.06133,0.008 11.17277,-0.15715 z"
         id="path17" /><path
         style="fill:#999999;fill-opacity:1;stroke-width:0.73597"
         d="m 95.076798,142.97006 c 0.422016,-0.58747 0.366355,-1.07247 -0.28348,-2.46985 -1.664503,-3.57934 -1.703588,-7.43759 -0.114558,-11.31006 0.819838,-1.99796 0.855756,-2.55051 0.206905,-3.18316 l -0.484042,-0.47196 H 87.323322 80.24502 l -0.12857,2.04885 c -0.279278,4.45047 -0.04229,15.21222 0.343275,15.58815 0.5152,0.50233 14.247425,0.31259 14.617073,-0.20197 z"
         id="path16" /><path
         style="fill:#666666;fill-opacity:1;stroke-width:0.73597"
         d="m 69.386919,160.87371 c -1.771756,-3.68026 -3.21869,-8.28209 -4.068092,-12.93816 l -0.420926,-2.30735 -1.378446,-0.23247 c -0.758145,-0.12785 -1.928247,-0.32344 -2.600228,-0.43464 -0.67198,-0.1112 -1.359725,-0.2538 -1.528323,-0.31688 -0.38565,-0.14429 -0.396878,-0.2836 0.191913,2.38128 0.855562,3.87229 2.897598,9.22935 4.623797,12.13001 l 0.498034,0.83689 1.676225,0.66893 c 3.390248,1.35295 3.560937,1.365 3.006046,0.21239 z"
         id="path15" /><path
         style="fill:#666666;fill-opacity:1;stroke-width:0.73597"
         d="m 150.77366,160.38244 1.07453,-0.52559 0.84183,-1.63437 c 2.24485,-4.35833 5.17626,-13.65182 4.30614,-13.65182 -0.0819,0 -0.91419,0.16877 -1.84954,0.37504 -0.93535,0.20628 -2.2109,0.47199 -2.83455,0.59047 l -1.13392,0.21543 v 0.55345 c 0,2.64761 -2.32335,10.58823 -4.21478,14.40497 -0.28494,0.575 -0.51808,1.11098 -0.51808,1.19106 0,0.19034 2.95182,-0.84533 4.32837,-1.51864 z"
         id="path14" /><path
         style="fill:#999999;fill-opacity:1;stroke-width:0.73597"
         d="m 80.458349,163.46208 c -1.322717,-2.94694 -3.484654,-11.29472 -3.931851,-15.18185 l -0.137313,-1.19355 -0.813592,-0.0986 c -0.447476,-0.0542 -1.745376,-0.19341 -2.884223,-0.30926 -1.138847,-0.11585 -2.359041,-0.25355 -2.711541,-0.306 -0.743335,-0.1106 -0.725423,-0.20637 -0.350472,1.87404 0.817834,4.53772 3.305321,11.6726 5.038081,14.45075 l 0.379129,0.60786 2.125551,0.41599 c 1.169054,0.2288 2.459523,0.42627 2.86771,0.43884 l 0.742157,0.0228 z"
         id="path13" /><path
         style="fill:#999999;fill-opacity:1;stroke-width:0.73597"
         d="m 137.86696,164.08261 c 0.97616,-0.16036 2.18448,-0.38225 2.68517,-0.49309 l 0.91034,-0.20153 1.19287,-2.43854 c 2.04502,-4.18061 4.90553,-13.81692 4.28198,-14.4249 -0.0559,-0.0545 -1.64688,0.0619 -3.53548,0.25867 l -3.43381,0.35781 -0.22854,1.64707 c -0.68037,4.90317 -2.47638,11.69111 -4.03521,15.25082 -0.18202,0.41566 -0.11037,0.41711 2.16268,0.0437 z"
         id="path12" /><path
         style="fill:#999999;fill-opacity:1;stroke-width:0.73597"
         d="m 97.458529,165.48102 c -1.006291,-4.84781 -1.743292,-9.84377 -2.09032,-14.16983 -0.285664,-3.56112 -0.52994,-3.84635 -2.995684,-3.49786 -0.129957,0.0184 -9.948546,-0.36055 -11.004224,-0.42467 l -0.493007,-0.0299 0.06145,0.57683 c 0.342009,3.21016 2.532992,11.55569 3.983266,15.17239 l 0.808483,2.01621 0.827247,0.11942 c 1.652055,0.2385 8.354883,0.82151 9.676726,0.84167 l 1.35577,0.0207 z"
         id="path11" /><path
         style="fill:#999999;fill-opacity:1;stroke-width:0.73597"
         d="m 122.18932,166.01103 c 2.08976,-0.12454 7.56425,-0.64004 8.19942,-0.77208 1.18732,-0.24681 5.01318,-13.40126 5.01318,-17.23682 v -0.53914 l -5.66958,0.0986 c -9.26497,0.16115 -8.33812,-0.14416 -8.55678,2.81864 -0.32621,4.42008 -1.16823,10.38099 -2.01682,14.2776 -0.34095,1.56563 -0.30086,1.68315 0.53162,1.55851 0.34404,-0.0515 1.46858,-0.14391 2.49896,-0.20532 z"
         id="path10" /><path
         style="fill:#999999;fill-opacity:1;stroke-width:0.73597"
         d="m 114.63647,164.97663 c 1.10761,-5.33713 2.58218,-18.86773 2.05622,-18.86773 -0.11492,0 -0.73944,0.33431 -1.38783,0.74292 -0.64838,0.40861 -1.96031,0.99265 -2.9154,1.29788 l -1.73651,0.55496 -2.56364,-0.0134 -2.56364,-0.0134 -1.59309,-0.51334 c -0.8762,-0.28233 -2.15092,-0.86487 -2.83272,-1.29453 -0.6818,-0.42967 -1.289385,-0.7327 -1.350189,-0.67342 -0.365236,0.35611 0.838699,11.35347 1.869369,17.07586 l 0.54594,3.03108 6.10859,-0.0507 6.10859,-0.0507 z"
         id="path9" /><path
         style="fill:#666666;fill-opacity:1;stroke-width:0.73597"
         d="m 76.709182,173.94129 c -0.0807,-0.13219 -0.483008,-0.68792 -0.894019,-1.23496 -1.055652,-1.40502 -2.901946,-4.39878 -3.442365,-5.58179 l -0.456962,-1.00031 -0.844752,-0.21204 c -0.464613,-0.11662 -1.272022,-0.34587 -1.794241,-0.50944 -1.314577,-0.41176 -1.3175,-0.28936 -0.03141,1.31481 1.46748,1.83041 8.075664,8.2261 7.463743,7.22373 z"
         id="path8" /><path
         style="fill:#666666;fill-opacity:1;stroke-width:0.73597"
         d="m 141.25664,172.855 c 2.21909,-1.87586 7.2024,-7.34933 6.93159,-7.61338 -0.0404,-0.0394 -0.96481,0.19459 -2.05418,0.52002 l -1.98068,0.5917 -0.73003,1.38274 c -1.08366,2.05254 -2.25333,3.9016 -3.27095,5.17089 -0.49776,0.62085 -1.08249,1.35546 -1.29941,1.63247 l -0.39441,0.50367 0.59161,-0.41152 c 0.32538,-0.22633 1.31829,-1.0258 2.20646,-1.77659 z"
         id="path7" /><path
         style="fill:#666666;fill-opacity:1;stroke-width:0.73597"
         d="m 126.31163,181.35884 c 4.73233,-2.5694 8.50364,-6.21326 11.91477,-11.51213 1.27843,-1.98593 1.34556,-2.23045 0.57727,-2.10292 -3.31418,0.55012 -4.89347,0.8989 -4.96069,1.09553 -0.93939,2.74782 -4.84958,8.81728 -7.32041,11.36287 -0.9945,1.02459 -1.74149,1.8629 -1.65995,1.8629 0.0815,0 0.73359,-0.31781 1.44901,-0.70625 z"
         id="path6" /><path
         style="fill:#666666;fill-opacity:1;stroke-width:0.73597"
         d="m 90.71803,181.15176 c -2.824815,-2.61014 -8.346058,-10.85088 -8.361594,-12.4801 -0.0012,-0.12334 -0.463014,-0.27904 -1.037435,-0.34976 -0.569424,-0.0701 -1.732865,-0.25127 -2.585423,-0.4026 -2.021652,-0.35884 -1.96236,-0.37184 -1.581235,0.34676 2.667338,5.02928 6.978649,9.51386 12.004575,12.48704 2.59663,1.53609 2.866733,1.60506 1.561112,0.39866 z"
         id="path5" /><path
         style="fill:#666666;fill-opacity:1;stroke-width:0.73597"
         d="m 114.30652,184.27447 c 5.3836,-1.85202 10.01513,-6.03526 13.78939,-12.45472 1.57003,-2.67038 1.59463,-2.61182 -0.97651,-2.32505 -1.13885,0.12702 -3.63825,0.34149 -5.55422,0.47661 l -3.48359,0.24565 -0.13069,0.84971 c -0.4901,3.18665 -2.49848,9.39873 -3.86662,11.95982 -0.82409,1.54265 -0.82205,1.53822 -0.71172,1.53822 0.0496,0 0.46992,-0.13061 0.93396,-0.29024 z"
         id="path4" /><path
         style="fill:#666666;fill-opacity:1;stroke-width:0.73597"
         d="m 108.72078,184.13209 c 1.62013,-1.73315 3.50587,-6.55833 4.59215,-11.75019 0.21816,-1.04274 0.39666,-1.92962 0.39666,-1.97087 0,-0.0412 -2.44818,-0.075 -5.44042,-0.075 h -5.44041 l 0.14022,0.81719 c 0.78686,4.58567 2.8849,10.58245 4.40625,12.59428 0.71338,0.94339 0.80002,0.96815 1.34555,0.38456 z"
         id="path3" /><path
         style="fill:#666666;fill-opacity:1;stroke-width:0.73597"
         d="m 102.40641,183.34003 c -1.33321,-2.36493 -2.965732,-7.3261 -3.768532,-11.45245 -0.379382,-1.95001 0.220768,-1.65116 -3.859772,-1.92205 -1.898083,-0.12601 -4.370361,-0.35872 -5.493957,-0.51714 -2.426723,-0.34215 -2.360318,-0.37806 -1.694547,0.91662 3.527505,6.85975 8.71784,11.84914 14.485008,13.92426 1.06019,0.38147 1.06853,0.35761 0.3318,-0.94924 z"
         id="path2" /></g><ellipse
       style="fill:#3359d8;fill-opacity:1;stroke:#ffffff;stroke-width:2.12117;stroke-linecap:round;stroke-linejoin:round;stroke-dasharray:none;stroke-opacity:0.610656;paint-order:markers fill stroke"
       id="path543-6"
       cx="128.76231"
       cy="209.16939"
       rx="8.663105"
       ry="8.6879864" /><ellipse
       style="fill:#33d83f;fill-opacity:1;stroke:#ffffff;stroke-width:2.11603;stroke-linecap:round;stroke-linejoin:round;stroke-dasharray:none;stroke-opacity:0.610656;paint-order:markers fill stroke"
       id="path543-6-0"
       cx="162.74284"
       cy="79.663994"
       rx="8.6793699"
       ry="8.6298027" /><ellipse
       style="fill:#d83d33;fill-opacity:1;stroke:#ffffff;stroke-width:2.12538;stroke-linecap:round;stroke-linejoin:round;stroke-dasharray:none;stroke-opacity:0.610656;paint-order:markers fill stroke"
       id="path543-6-07"
       cx="33.323284"
       cy="113.79745"
       rx="8.7077675"
       ry="8.6778517" /></g><path
     d="m 65.259253,458.96499 h 6.948181 v 52.18607 H 64.698916 V 470.5453 L 48.635917,490.71743 H 47.253752 L 31.041331,470.5453 v 40.60576 h -7.471163 v -52.18607 h 7.022893 l 17.370452,21.44224 z"
     id="text6"
     style="font-size:76.5047px;font-family:'Gill Sans';-inkscape-font-specification:'Gill Sans';white-space:pre;stroke:#000000;stroke-width:0.391032;stroke-opacity:1;fill:#000000;fill-opacity:1"
     transform="matrix(1.4755812,0,0,1.4755812,171.36164,-610.97375)"
     aria-label="M" /><path
     d="m 83.526245,511.07635 v -52.11136 h 17.594585 q 10.64641,0 16.84747,3.2126 6.20107,3.17525 9.86194,9.37631 3.66087,6.20107 3.66087,13.52281 0,5.22981 -2.01722,10.01135 -2.01721,4.78155 -5.75279,8.40506 -3.8103,3.73558 -8.85333,5.64073 -2.95111,1.15803 -5.41659,1.56894 -2.46549,0.37356 -9.41367,0.37356 z m 16.810115,-45.46202 h -9.338953 v 38.81269 h 9.563083 q 5.60338,0 8.70391,-0.74712 3.10053,-0.78447 5.1551,-1.9425 2.09193,-1.19539 3.81029,-2.91376 5.52866,-5.60337 5.52866,-14.15785 0,-8.40505 -5.67808,-13.70958 -2.09193,-1.97986 -4.8189,-3.24996 -2.68962,-1.27009 -5.11775,-1.68101 -2.42812,-0.41091 -7.80736,-0.41091 z"
     id="text5"
     style="font-size:76.5047px;font-family:'Gill Sans';-inkscape-font-specification:'Gill Sans';white-space:pre;stroke:#000000;stroke-width:0.391032;stroke-opacity:1;fill:#000000;fill-opacity:1"
     transform="matrix(1.4755812,0,0,1.4755812,171.36164,-610.97375)"
     aria-label="D" /><path
     d="m 153.26955,458.66615 h 5.26717 l 23.34738,52.48491 h -7.65794 l -6.94818,-15.4653 h -22.18935 l -6.57463,15.4653 h -7.65794 z m 10.94525,30.37027 -8.40505,-18.90204 -7.80737,18.90204 z"
     id="text4"
     style="font-size:76.5047px;font-family:'Gill Sans';-inkscape-font-specification:'Gill Sans';white-space:pre;stroke:#000000;stroke-width:0.391032;stroke-opacity:1;fill:#000000;fill-opacity:1"
     transform="matrix(1.4755812,0,0,1.4755812,171.36164,-610.97375)"
     aria-label="A" /><path
     d="m 229.10184,458.96499 h 7.0976 v 52.18607 h -6.4252 l -34.89032,-40.15749 v 40.15749 h -7.0229 v -52.18607 h 6.05165 l 35.18917,40.4937 z"
     id="text3"
     style="font-size:76.5047px;font-family:'Gill Sans';-inkscape-font-specification:'Gill Sans';white-space:pre;stroke:#000000;stroke-width:0.391032;stroke-opacity:1;fill:#000000;fill-opacity:1"
     transform="matrix(1.4755812,0,0,1.4755812,171.36164,-610.97375)"
     aria-label="N" /><path
     d="m 260.29393,489.26056 -5.67808,-3.43674 q -5.34188,-3.24995 -7.62059,-6.38784 -2.24134,-3.17524 -2.24134,-7.28438 0,-6.16371 4.25856,-10.01136 4.29592,-3.84765 11.13203,-3.84765 6.53727,0 11.99121,3.66087 v 8.47977 q -5.64072,-5.41659 -12.14063,-5.41659 -3.66087,0 -6.01429,1.71836 -2.35341,1.68101 -2.35341,4.33328 0,2.35341 1.71836,4.40798 1.71837,2.05457 5.56602,4.29592 l 5.71544,3.36202 q 9.56308,5.67809 9.56308,14.49406 0,6.27577 -4.2212,10.19813 -4.18385,3.92236 -10.9079,3.92236 -7.73265,0 -14.08314,-4.74418 v -9.48838 q 6.05164,7.65794 14.00843,7.65794 3.51145,0 5.82751,-1.9425 2.35341,-1.97986 2.35341,-4.93097 0,-4.78154 -6.87347,-9.0401 z"
     id="text2"
     style="font-size:76.5047px;font-family:'Gill Sans';-inkscape-font-specification:'Gill Sans';white-space:pre;stroke:#000000;stroke-width:0.391032;stroke-opacity:1;fill:#000000;fill-opacity:1"
     transform="matrix(1.4755812,0,0,1.4755812,171.36164,-610.97375)"
     aria-label="S" /><path
     d="m 282.40859,458.96499 h 29.5858 v 6.64934 h -22.11464 v 15.91357 h 21.36752 v 6.68669 h -21.36752 v 16.21243 h 22.8244 v 6.64933 h -30.29556 z"
     id="text1"
     style="font-size:76.5047px;font-family:'Gill Sans';-inkscape-font-specification:'Gill Sans';white-space:pre;stroke:#000000;stroke-width:0.391032;stroke-opacity:1;fill:#000000;fill-opacity:1"
     transform="matrix(1.4755812,0,0,1.4755812,171.36164,-610.97375)"
     aria-label="E" /></svg>
